<svg width="18" height="18" viewBox="0 0 18 18" fill="none" xmlns="http://www.w3.org/2000/svg">
<path d="M3.375 4.3125C3.375 2.41402 4.91402 0.875 6.8125 0.875C8.71098 0.875 10.25 2.41402 10.25 4.3125C10.25 6.21098 8.71098 7.75 6.8125 7.75C4.91402 7.75 3.375 6.21098 3.375 4.3125Z" fill="#151ABD"/>
<path d="M0.875 14.9375C0.875 11.6583 3.53331 9 6.8125 9C10.0917 9 12.75 11.6583 12.75 14.9375V14.9396C12.75 14.9728 12.7497 15.0061 12.7491 15.0391C12.7455 15.2545 12.6312 15.4529 12.4466 15.564C10.8006 16.5551 8.87214 17.125 6.8125 17.125C4.75286 17.125 2.82441 16.5551 1.17838 15.564C0.993802 15.4529 0.879477 15.2545 0.875855 15.0391C0.875287 15.0053 0.875 14.9715 0.875 14.9375Z" fill="#151ABD"/>
<path d="M14.625 5.25C14.625 4.90482 14.3452 4.625 14 4.625C13.6548 4.625 13.375 4.90482 13.375 5.25V7.125H11.5C11.1548 7.125 10.875 7.40482 10.875 7.75C10.875 8.09518 11.1548 8.375 11.5 8.375H13.375V10.25C13.375 10.5952 13.6548 10.875 14 10.875C14.3452 10.875 14.625 10.5952 14.625 10.25V8.375H16.5C16.8452 8.375 17.125 8.09518 17.125 7.75C17.125 7.40482 16.8452 7.125 16.5 7.125H14.625V5.25Z" fill="#151ABD"/>
</svg>
