<svg width="26" height="26" viewBox="0 0 26 26" fill="none" xmlns="http://www.w3.org/2000/svg">
<path fill-rule="evenodd" clip-rule="evenodd" d="M0 15C0 8.92487 4.92487 4 11 4C11.5523 4 12 4.44772 12 5V14H21C21.5523 14 22 14.4477 22 15C22 21.0751 17.0751 26 11 26C4.92487 26 0 21.0751 0 15Z" fill="white"/>
<path fill-rule="evenodd" clip-rule="evenodd" d="M14 1C14 0.447715 14.4477 0 15 0C21.0751 0 26 4.92487 26 11C26 11.5523 25.5523 12 25 12H15C14.4477 12 14 11.5523 14 11V1Z" fill="white"/>
</svg>
