<svg width="33" height="32" viewBox="0 0 33 32" fill="none" xmlns="http://www.w3.org/2000/svg">
<path d="M15.6919 2.80352C16.1382 2.32603 16.8618 2.32603 17.3081 2.80352L30.549 16.9695C30.9953 17.447 31.719 17.447 32.1653 16.9695C32.6116 16.492 32.6116 15.7178 32.1653 15.2403L18.9244 1.07436C17.5854 -0.358122 15.4146 -0.358119 14.0756 1.07436L0.834735 15.2403C0.388422 15.7178 0.388422 16.492 0.834735 16.9695C1.28105 17.447 2.00467 17.447 2.45098 16.9695L15.6919 2.80352Z" fill="white"/>
<path d="M16.5 5.39726L28.9328 18.6986C28.9781 18.7471 29.0243 18.7939 29.0714 18.8391V28.9432C29.0714 30.6314 27.7922 32 26.2143 32H21.0714C20.4402 32 19.9286 31.4526 19.9286 30.7773V23.4411C19.9286 22.7658 19.4169 22.2184 18.7857 22.2184H14.2143C13.5831 22.2184 13.0714 22.7658 13.0714 23.4411V30.7773C13.0714 31.4526 12.5598 32 11.9286 32H6.78571C5.20776 32 3.92857 30.6314 3.92857 28.9432V18.8391C3.9757 18.7939 4.02194 18.7471 4.06722 18.6986L16.5 5.39726Z" fill="white"/>
</svg>
