<svg width="24" height="26" viewBox="0 0 24 26" fill="none" xmlns="http://www.w3.org/2000/svg">
<path d="M15.8091 19.7756C18.3352 19.476 20.7711 18.8821 23.0815 18.0292C21.1658 15.9027 19.9997 13.0875 19.9997 10V9.06558C19.9999 9.04374 20 9.02188 20 9C20 4.58172 16.4183 1 12 1C7.58172 1 4 4.58172 4 9L3.99974 10C3.99974 13.0875 2.8337 15.9027 0.917969 18.0292C3.22854 18.8821 5.66458 19.4761 8.19085 19.7757M15.8091 19.7756C14.56 19.9238 13.2888 20 11.9997 20C10.7109 20 9.43984 19.9238 8.19085 19.7757M15.8091 19.7756C15.9331 20.1615 16 20.5729 16 21C16 23.2091 14.2091 25 12 25C9.79086 25 8 23.2091 8 21C8 20.573 8.06692 20.1615 8.19085 19.7757" stroke="#0F172A" stroke-width="1.5" stroke-linecap="round" stroke-linejoin="round"/>
</svg>
