<svg width="28" height="20" viewBox="0 0 28 20" fill="none" xmlns="http://www.w3.org/2000/svg">
<path d="M1 2.5C1 1.67157 1.67157 1 2.5 1H10.5C11.3284 1 12 1.67157 12 2.5V7.5C12 8.32843 11.3284 9 10.5 9H2.5C1.67157 9 1 8.32843 1 7.5V2.5Z" stroke="white" stroke-width="1.5" stroke-linecap="round" stroke-linejoin="round"/>
<path d="M17 4.5C17 3.67157 17.6716 3 18.5 3H25.5C26.3284 3 27 3.67157 27 4.5V15.5C27 16.3284 26.3284 17 25.5 17H18.5C17.6716 17 17 16.3284 17 15.5V4.5Z" stroke="white" stroke-width="1.5" stroke-linecap="round" stroke-linejoin="round"/>
<path d="M3 14.5C3 13.6716 3.67157 13 4.5 13H11.5C12.3284 13 13 13.6716 13 14.5V17.5C13 18.3284 12.3284 19 11.5 19H4.5C3.67157 19 3 18.3284 3 17.5V14.5Z" stroke="white" stroke-width="1.5" stroke-linecap="round" stroke-linejoin="round"/>
</svg>
