<svg width="29" height="20" viewBox="0 0 29 20" fill="none" xmlns="http://www.w3.org/2000/svg">
<path fill-rule="evenodd" clip-rule="evenodd" d="M0.5 2.5C0.5 1.11929 1.61929 0 3 0H11C12.3807 0 13.5 1.11929 13.5 2.5V7.5C13.5 8.88071 12.3807 10 11 10H3C1.61929 10 0.5 8.88071 0.5 7.5V2.5ZM16.5 4.5C16.5 3.11929 17.6193 2 19 2H26C27.3807 2 28.5 3.11929 28.5 4.5V15.5C28.5 16.8807 27.3807 18 26 18H19C17.6193 18 16.5 16.8807 16.5 15.5V4.5ZM2.5 14.5C2.5 13.1193 3.61929 12 5 12H12C13.3807 12 14.5 13.1193 14.5 14.5V17.5C14.5 18.8807 13.3807 20 12 20H5C3.61929 20 2.5 18.8807 2.5 17.5V14.5Z" fill="white"/>
</svg>
