<svg width="26" height="26" viewBox="0 0 26 26" fill="none" xmlns="http://www.w3.org/2000/svg">
<path fill-rule="evenodd" clip-rule="evenodd" d="M21.9138 22.4628C24.4295 20.0922 26 16.7295 26 13C26 5.8203 20.1797 0 13 0C5.8203 0 0 5.8203 0 13C0 16.7295 1.57047 20.0922 4.08617 22.4628C6.41349 24.6559 9.54978 26 13 26C16.4502 26 19.5865 24.6559 21.9138 22.4628ZM5.1935 20.7497C7.02615 18.4637 9.84214 17 13 17C16.1579 17 18.9738 18.4637 20.8065 20.7497C18.8137 22.757 16.052 24 13 24C9.948 24 7.1863 22.757 5.1935 20.7497ZM18 9C18 11.7614 15.7614 14 13 14C10.2386 14 8 11.7614 8 9C8 6.23858 10.2386 4 13 4C15.7614 4 18 6.23858 18 9Z" fill="white"/>
</svg>
