<svg width="36" height="36" viewBox="0 0 36 36" fill="none" xmlns="http://www.w3.org/2000/svg">
<path d="M18.5199 0C8.85733 0 1.03192 7.5075 1.03192 16.7775C1.03192 19.8424 1.88995 22.7153 3.38571 25.1892C3.98696 26.1836 4.1376 27.4133 3.63316 28.4602L0.553297 34.8518C0.364218 35.2441 0.766764 35.6593 1.16482 35.4825V35.4825L5.72073 33.4646C8.51208 32.2283 11.6851 32.5049 14.6695 33.1479C15.906 33.4144 17.192 33.555 18.512 33.555C28.1668 33.555 36 26.0475 36 16.7775C36.0078 7.5075 28.1746 0 18.5199 0ZM27.8462 23.94C27.7446 24.405 27.5335 24.8475 27.2287 25.2375C26.8534 25.7175 26.3687 26.0775 25.8137 26.3025C25.2586 26.5275 24.6489 26.6175 24.0391 26.5425C22.4052 26.355 20.8261 25.8525 19.4111 25.0425C17.7772 24.1125 15.5805 22.665 13.9231 20.595C12.1563 18.6075 11.1948 16.2825 10.585 14.55C10.0612 13.0575 9.87361 11.4675 10.0221 9.9C10.0769 9.3075 10.2958 8.7525 10.6397 8.28C10.9837 7.8075 11.4606 7.425 12.0235 7.1775C12.4847 6.9675 12.985 6.87 13.4775 6.87C14.1811 6.87 15.041 6.8625 15.6352 7.2675C16.5577 7.89 16.9485 9.12 16.9485 10.2C16.9485 10.2975 16.9407 10.4025 16.9329 10.5C16.8782 11.0925 16.8234 11.61 16.4717 12.0825V12.0825C15.8039 12.9998 15.056 14.0187 15.4119 15.096C15.8413 16.3955 16.4169 17.4176 17.1283 18.1575C17.5661 18.7425 18.1603 19.2975 18.9186 19.815C19.2279 20.0261 19.5632 20.2297 19.9256 20.4263C20.934 20.9734 22.1003 20.4635 23.1635 20.0325V20.0325C23.7107 19.8075 24.258 19.86 24.8677 19.935C24.9694 19.95 25.0788 19.965 25.1804 19.9875C26.2749 20.2125 27.4475 20.835 27.8932 21.8325C28.1746 22.4775 27.9948 23.28 27.8462 23.94Z" fill="#E32F2F"/>
</svg>
